<?xml version="1.0" encoding="UTF-8"?>
<svg id="Camada_1" xmlns="http://www.w3.org/2000/svg" version="1.1" viewBox="0 0 1080 1080">
  <!-- Generator: Adobe Illustrator 29.8.1, SVG Export Plug-In . SVG Version: 2.1.1 Build 2)  -->
  <defs>
    <style>
      .st0 {
        fill: #fff;
      }
    </style>
  </defs>
  <path class="st0" d="M369.12,614.03c-66.32,13.23-135.85-20.31-154.07-87.76-22.87-84.68,31.59-185.3,93.07-240.86,158.98-143.68,423.81-107.41,524.6,85.2,36.54,69.82,68.52,211.39-16.25,258.63-40.29,22.45-84.6,10.14-128.62,12.25-34.74,1.66-71.5,11.59-102.89,26.16-31.15,14.46-58.52,37.12-93.39,42.55-63.12,9.82-115.32-34.2-122.45-96.17ZM541.6,241.59c-79.66-.95-159.97,32.86-215.72,89.16-.41,2.22.97,1.36,2.44,1.47,21.73,1.51,43.17,4.52,61.49,17.33,42.22,29.5,28.83,98.45-22.34,108.49-10.71,2.1-22.05.31-31.23,7.19-14.79,11.08-9.88,31.18,6.59,37.69,18.39,7.26,54.01,6.52,72.05-1.41,22.48-9.88,35.43-22.15,30.88-48.33-4.14-23.84-8.1-35.67-3.38-61.1,2.18-11.77,9.04-23.38,5.37-35.45-4.21-13.86-21.41-17.34-15.53-34.8,2.97-8.83,15.1-11.73,22.66-6.8s10.54,17.09,21.65,9.74c34.44-22.75,35.68-56.11,63.82-80.92.67-.59,1.89.05,1.26-2.25ZM801.67,409.05c-27.47-63.73-81.59-115.57-145.13-143.01-24.81-10.71-50.72-19.05-77.49-9.17-32.06,11.83-33.74,38.98-51.83,62.44-11.12,14.41-28.07,24.97-38.25,39.57-14.54,20.85-35.09,91.77,9.7,85.55,21.94-3.05,19.36-32.82,24.19-48.71,19.71-64.86,95.89-92.88,154.01-58.39,8.57,5.08,26.83,20.3,31.09,29,7.24,14.79-9.36,30.09-23.01,20.06-12.25-9-16.1-19.55-32.75-26.36-48.96-20.03-99.06,11.77-102.7,63.79,27.26-9.18,54.2-13.17,80.79.48,24.72,12.68,38.7,39.6,39.38,67.01.18,7.22-3.51,12.56,1.55,20.13,7.93,11.86,24.32,9.87,34.39,2.02,20.29-15.83,12.87-35.57,20.44-56.4,8.4-23.12,35.67-48,61.35-48h14.28ZM386.94,539.09c-28.51-.2-63.25-.79-81.2-26.67-19.56-28.21-7.77-67.8,24.54-79.75,18.04-6.67,41.14-.15,50.63-21.28,6.39-14.24,1.27-30.07-12-37.99-24.19-14.44-64.81-15.53-82.83,9.16-33.69,46.16-52.33,144.72,7.61,178.36,18.5,10.38,61.73,17.8,79.41,4.22,2.99-2.3,15.26-24.66,13.84-26.05ZM787.64,440.83c-40.56,5.48-30.3,50.8-44.56,76.6-10.19,18.43-31.6,34.26-53.26,34.5-60.04.64-105.51,5.97-157.59,38.36-8.08,5.03-17.15,13.39-24.75,17.61-16.7,9.28-35.83-11.48-25.42-27.39,4.18-6.38,23.48-18.95,30.67-23.51,17.46-11.05,36.22-20.42,55.95-26.8,25.66-8.3,66.74-10.6,54.41-50.43-8.38-27.06-37.72-21.46-58.34-14.59-44.5,14.83-113.85,56.3-138.8,96.64-37.33,60.36,12.87,127.47,81.85,97.61,26.09-11.29,48.25-28.14,76.2-39.05,58.41-22.8,100.44-23.04,161.98-21.17,74.67,2.27,87.1-46.68,78.09-111.58-2.96-21.28-8.09-50.63-36.42-46.8Z"/>
  <path class="st0" d="M826.3,660.75c-.39,4.09-2.36,11.01-3.45,15.27-23.72,92.86-140.34,124.8-204.7,52.03-8.82-4.96-15.88,3.7-11.4,12.38,1.06,2.05,10.78,11.39,13.15,13.45,13.54,11.8,30.08,20.14,47.05,25.84,3.28,1.1,9.49,1.67,11.89,2.88,2.15,1.08,8.02,21.76,9.53,25.94,3.57,9.89,14.83,34.4,14.87,43.33.08,20.55-18.16,34.69-38.05,29.11-18.23-5.12-21.76-25.66-29.29-40.65-13.57-27.02-30.97-55.07-53.88-75.16-17.61-15.44-40.68-26.35-49.35-50.13,44.82-25.66,86.18-48.33,138.61-54.64,27.66-3.33,50.52-.57,77.66-.09s53.1-2.94,77.37-16.79c-.39,5.58.53,11.74,0,17.24Z"/>
</svg>